PathFileType	4	(X/Y/Z)	c:/Users/goper/Files/vsCode/490R/osim_files/C12/C12_Fast_01.trc
DataRate	CameraRate	NumFrames	NumMarkers	Units                	OrigDataRate	OrigDataStartFrame	OrigNumFrames
120.00	120.00	9	36	mm	120.0	472	1258
                Frame#	Time	LPSIS			LASIS			LTH1			LTH2			LTH3			LTH4			LLFE			LMFE			LSH1			LSH2			LSH3			LSH4			LLMAL			LMMAL			LCAL			LMTP5			LTOE			LMTP1			RPSIS			RASIS			RTH1			RTH2			RTH3			RTH4			RLFE			RMFE			RSH1			RSH2			RSH3			RSH4			RLMAL			RMMAL			RCAL			RMTP1			RTOE			RMTP5		
		X1	Y1	Z1	X2	Y2	Z2	X3	Y3	Z3	X4	Y4	Z4	X5	Y5	Z5	X6	Y6	Z6	X7	Y7	Z7	X8	Y8	Z8	X9	Y9	Z9	X10	Y10	Z10	X11	Y11	Z11	X12	Y12	Z12	X13	Y13	Z13	X14	Y14	Z14	X15	Y15	Z15	X16	Y16	Z16	X17	Y17	Z17	X18	Y18	Z18	X19	Y19	Z19	X20	Y20	Z20	X21	Y21	Z21	X22	Y22	Z22	X23	Y23	Z23	X24	Y24	Z24	X25	Y25	Z25	X26	Y26	Z26	X27	Y27	Z27	X28	Y28	Z28	X29	Y29	Z29	X30	Y30	Z30	X31	Y31	Z31	X32	Y32	Z32	X33	Y33	Z33	X34	Y34	Z34	X35	Y35	Z35	X36	Y36	Z36

472	3.92500	41.01530	1023.81067	330.96506	-129.75162	974.01807	406.16595	18.83817	704.89581	445.29556	22.89417	661.19952	445.90784	-40.25941	697.27405	457.67081	-30.40808	653.94653	455.34802	28.56467	480.82593	428.49454	8.95206	458.51056	306.81027	138.98621	460.67731	437.05264	176.29317	432.19266	443.57501	104.85045	409.35962	442.78696	148.46754	388.55478	444.39920	393.62909	241.11340	395.73865	376.85379	230.34863	319.60086	426.42392	294.83600	355.36606	431.11029	92.96169	404.00650	372.81146	67.22774	337.12814	408.94608	82.22520	294.40106	47.94299	1023.52405	216.05037	-138.35133	998.23029	152.50130	-152.07617	723.14282	95.51308	-176.89294	685.37512	107.23763	-206.66402	751.63000	110.26629	-223.75546	708.00763	116.82435	-257.25787	529.50659	155.10345	-241.23125	531.09924	288.22821	-217.67886	423.20029	125.52422	-226.09259	380.95383	120.91465	-277.98740	425.63358	144.09467	-276.76089	383.64587	135.61426	-260.43491	96.01801	172.27354	-273.45825	108.55907	255.71005	-187.70291	57.21264	209.32741	-402.01913	51.48365	255.31105	-443.14435	76.42075	224.63055	-410.92349	43.96983	149.53766
473	3.93333	27.45787	1025.76477	330.85623	-143.47231	976.35913	404.46646	-1.48486	703.85376	445.88913	1.49360	660.21185	446.49783	-60.80620	697.92554	458.18057	-52.22960	654.33765	455.91675	3.28925	479.99109	429.07028	-18.63433	457.07443	308.12323	112.73537	462.02011	437.87753	150.66678	434.38214	444.21597	79.81160	410.18805	444.05869	123.73792	390.12344	445.46179	372.52380	248.85695	396.22147	354.89304	236.38541	319.61664	401.79700	303.79764	354.84348	417.22488	101.79829	402.42963	360.94070	65.73523	339.05997	393.31900	89.63855	295.13666	34.25639	1026.19470	216.24248	-151.90550	1001.51636	150.82263	-165.13846	725.34772	93.65691	-189.43221	687.15637	105.56671	-220.03461	752.94550	109.23541	-236.53378	709.11523	115.68381	-266.74527	528.64819	153.53156	-250.60268	531.33850	285.82309	-225.90094	424.15021	123.74754	-233.41083	381.75555	119.37776	-286.08096	425.40970	143.11552	-284.13715	383.32880	134.47501	-261.18805	96.15544	172.17258	-274.24759	108.82722	255.46678	-187.87794	58.02672	209.31895	-402.41202	50.82178	255.34105	-443.70145	75.10798	224.37346	-411.38846	43.00883	149.15796
474	3.94167	14.12572	1027.64209	330.91116	-156.88637	978.74969	403.00778	-21.61788	703.70135	446.43256	-19.72321	659.96985	447.20966	-81.02303	699.37488	458.83859	-73.53118	655.52325	456.69495	-22.05484	480.13556	429.60794	-45.65937	457.67966	308.69724	85.97574	463.69717	438.59387	124.31054	436.68884	444.59509	54.57389	412.53894	444.50845	98.62939	392.51898	446.48904	350.62973	255.96768	396.51450	332.29312	242.14975	319.93173	377.07166	311.31458	354.07764	401.84763	109.76325	400.74872	349.95108	66.09859	341.38907	374.96924	96.32899	295.43460	20.47604	1028.66028	216.22815	-165.46867	1004.48969	149.16426	-177.01978	727.18066	91.76121	-200.81454	688.57831	104.01822	-232.41302	753.86914	107.96055	-248.07761	709.67767	114.38825	-274.57895	528.43817	151.97716	-258.20218	531.53955	283.67798	-233.73114	424.96213	122.03168	-239.85614	382.28857	118.11329	-293.29532	424.97455	141.99152	-290.44131	382.90128	133.35045	-261.73251	96.27422	171.93918	-274.90189	109.10075	255.19319	-188.27939	58.64436	209.10791	-402.79324	50.40234	255.22878	-444.17371	74.06325	224.16212	-411.71213	42.36902	148.69249
475	3.95000	1.11127	1029.40247	331.00595	-170.11456	981.21185	401.71008	-41.20794	704.39081	446.87756	-40.46592	660.65881	447.96628	-100.73795	701.53864	459.49768	-93.82226	656.93811	457.40289	-48.03367	480.47250	430.07126	-71.67534	459.80527	308.40945	58.94252	465.42502	439.20407	97.71854	438.74213	445.21179	28.09602	414.01779	444.87778	72.32642	394.33997	446.95496	328.34235	262.32993	396.66168	308.10718	247.69753	320.20566	351.89505	318.13040	353.26083	383.91171	117.89836	400.05670	336.25690	72.31191	344.27841	354.64383	102.96850	295.15057	7.00647	1031.20093	216.25220	-178.79372	1007.25458	147.58192	-187.98325	728.70056	90.40189	-210.81798	689.66522	102.63486	-243.86938	754.27911	106.65269	-258.94400	709.53912	113.30573	-281.58539	527.99414	150.36143	-264.68088	531.64380	281.89462	-239.32555	425.47656	121.49369	-245.21829	382.65176	117.22721	-299.42273	424.43277	141.04701	-295.90775	382.40735	132.45497	-262.27145	96.38177	171.79454	-275.49106	109.30936	254.94128	-188.53763	59.09748	209.01895	-403.04434	49.93699	255.20343	-444.42154	73.19129	224.04126	-412.00400	41.91050	148.41223
476	3.95833	-11.51725	1031.25073	330.98099	-183.30688	983.93494	400.43719	-60.51705	705.80951	447.04248	-60.69175	662.03857	448.67657	-119.96603	704.30206	460.02365	-113.97332	659.68713	458.39386	-73.50550	482.54633	430.92792	-97.03858	462.71893	307.96848	31.99741	467.47256	439.62228	71.07581	441.15576	445.92712	1.55633	415.68140	445.00259	45.86958	396.29401	447.23434	305.27286	268.92871	396.51254	282.98419	252.92105	319.70059	327.74902	324.74326	352.59488	361.96915	125.24256	399.60867	312.29019	81.61535	342.92789	329.83313	109.80021	294.96808	-6.13885	1033.73291	216.05719	-192.08047	1009.77185	146.08577	-197.70705	729.92676	89.46159	-219.84427	690.47473	101.45126	-254.26016	754.39294	105.17175	-268.10294	709.51331	111.84703	-287.69345	527.69501	148.94223	-270.98816	531.98499	280.46823	-243.93196	425.78345	121.12043	-249.48187	382.73770	116.80223	-304.40714	423.87137	140.01463	-300.24045	381.85574	131.51801	-262.79193	96.55894	171.82043	-276.13196	109.50267	254.79568	-188.84074	59.68999	209.00934	-403.26312	49.55387	255.30818	-444.69672	72.54025	224.00224	-412.44708	41.79192	148.17194
477	3.96667	-24.18908	1033.02490	330.77591	-196.61198	986.76904	399.22186	-79.18528	707.70892	447.13919	-80.43855	663.93427	449.15918	-138.64792	707.59027	460.53180	-133.68765	662.88416	459.29306	-99.04260	485.30499	431.82278	-122.31945	465.96365	307.81396	5.06143	469.76151	440.00497	44.42721	443.61517	446.26807	-25.23686	417.69244	444.80682	19.22641	398.57019	447.26352	281.28790	275.02448	395.94440	258.75229	259.01987	319.36603	304.79028	330.36990	352.21860	335.75406	130.21040	398.80612	283.49350	86.61900	342.76282	302.27789	115.14874	294.82578	-19.13914	1036.15234	215.63805	-205.22298	1012.09949	144.67325	-206.38066	730.95447	88.70115	-227.61383	691.26025	101.60278	-263.18710	754.20953	103.58810	-275.93896	709.51385	108.96787	-293.24380	527.34888	147.85925	-277.01926	532.38947	279.55942	-247.74242	425.97372	121.00236	-252.54926	382.90662	116.72158	-308.46307	423.35974	138.92891	-303.61179	381.34286	130.68655	-263.15771	96.71864	171.90546	-277.16113	110.15112	254.88666	-189.22388	60.14381	208.88115	-403.52173	49.29539	255.33296	-445.05896	71.83001	223.94884	-412.58902	41.69284	148.14455
478	3.97500	-36.60403	1035.00293	330.40204	-209.59933	989.73846	398.32141	-97.46304	709.90625	447.08240	-99.74902	666.10425	449.38306	-156.89407	711.20911	460.83997	-153.06760	666.38000	459.89175	-124.19605	488.73227	432.61060	-147.15977	469.63455	307.61615	-21.73660	472.33139	440.25534	18.14304	446.67380	446.23068	-51.57027	420.07031	444.71783	-7.02768	401.26160	447.25256	256.69562	279.83585	395.28329	233.71381	265.33875	319.10806	282.16492	334.75616	351.94177	306.58023	133.69180	398.38824	252.58949	91.62761	343.33524	273.28064	119.86039	294.22458	-31.96164	1038.68787	214.97972	-218.19939	1014.17761	143.44176	-214.27229	731.88446	88.06636	-234.63293	691.65234	100.84338	-272.12482	753.39124	101.44759	-283.40732	708.96002	106.90784	-298.49161	527.18854	147.20523	-282.89133	532.76874	278.89172	-250.65907	426.27673	121.26330	-254.85329	383.09396	116.97498	-311.59485	422.89749	137.84108	-306.17422	381.05127	129.74004	-263.47009	96.82670	171.97293	-277.61560	110.39127	254.87088	-189.33095	60.64808	208.86847	-403.62473	49.13179	255.33986	-445.23346	71.34877	223.89815	-412.74963	41.54812	148.10213
479	3.98333	-49.22773	1037.21838	329.79315	-222.88116	993.22614	396.98511	-115.55341	712.13745	446.93219	-118.93719	668.44092	449.32809	-174.82751	714.99292	460.99539	-172.23643	670.03467	460.18924	-149.93715	491.91397	433.29581	-171.69763	473.75146	307.40350	-47.88077	475.31665	439.75943	-8.23672	449.63458	446.29388	-77.92142	422.71005	444.83649	-33.38052	404.03830	447.26767	230.94606	283.49954	394.46918	208.63539	271.15576	318.64230	259.58865	337.94031	351.74710	274.78760	135.86011	398.29755	220.17415	96.73154	341.14072	242.66496	123.61577	293.44290	-44.38112	1041.54358	214.18593	-231.21323	1016.21729	142.29878	-222.14442	732.70300	87.30889	-240.99986	691.72943	100.25891	-280.05765	753.18512	99.87949	-290.59628	708.37622	105.59880	-303.51242	526.92371	146.31456	-289.90463	533.51361	278.73633	-252.75383	426.77933	121.78451	-256.45267	383.52994	117.23217	-314.21552	422.68646	136.78024	-308.10214	380.80334	128.69955	-263.71371	96.99317	172.02234	-278.11578	110.61005	254.87686	-189.57005	61.12620	208.90689	-403.81775	48.93606	255.35851	-445.47107	70.89235	223.82521	-412.93433	41.52586	148.09271
480	3.99167	-61.83741	1039.86414	328.97156	-235.45723	996.46619	396.39926	-133.62447	714.47217	446.58258	-138.23528	670.89856	448.85275	-192.66071	718.84644	460.98532	-191.64084	673.69012	459.93863	-175.52377	495.39807	433.92587	-196.20799	478.03131	307.40198	-74.15431	478.41544	439.96408	-34.61922	452.32431	446.10254	-104.07180	425.65775	445.00629	-59.49349	407.08688	447.24759	204.48840	286.49408	393.72574	182.93629	275.91370	318.25729	236.70599	339.77045	351.69885	241.21962	136.94524	398.16788	185.83693	100.53330	339.75912	210.74597	126.53426	292.77139	-57.37894	1044.22815	213.24721	-243.88327	1018.35553	141.23746	-228.52496	733.53113	87.66456	-247.12131	692.06958	100.03275	-287.37308	753.21100	98.39151	-297.34024	708.17529	104.25147	-308.50616	527.18402	145.78258	-294.82071	533.66858	278.29016	-254.47057	427.47012	122.35073	-257.50064	384.15643	117.62332	-316.22717	422.64267	135.68845	-309.03598	380.87598	127.72953	-264.01785	97.26581	172.06491	-278.53033	110.84541	254.84111	-189.66925	61.87310	209.09375	-404.15976	48.80216	255.50294	-445.70157	70.42702	223.73552	-413.12250	41.38483	148.07356
